<svg viewBox="0 0 32 32" fill="none" xmlns="http://www.w3.org/2000/svg">
<g clip-path="url(#clip0)">
<path d="M16 32.0006C24.8366 32.0006 32 24.837 32 16.0003C32 7.16358 24.8366 0 16 0C7.16344 0 0 7.16358 0 16.0003C0 24.837 7.16344 32.0006 16 32.0006Z" fill="#DD4D93"/>
<path d="M15.7249 9.98099L11.1984 15.9985H11.1978L15.72 18.2315L15.7206 18.2309L15.7225 9.96985" fill="white"/>
<path d="M15.9674 18.2629L15.9693 9.98209L20.4736 16.0163V16.0157L15.9668 18.2301" fill="white"/>
<path d="M11.8722 14.6041L3.62012 12.261L10.9132 15.8629H10.9138L11.8648 14.5985" fill="white"/>
<path d="M19.7559 14.604L28.206 12.2027L20.7204 15.8808L19.7633 14.5984" fill="white"/>
<path d="M23.2967 21.9325L28.1448 12.5327L16.1733 18.414L16.174 18.4147L23.2973 21.9325" fill="white"/>
<path d="M8.42185 21.8774L15.4718 18.4134L3.63672 12.5692L8.42185 21.8774Z" fill="white"/>
<path d="M22.657 21.9144L15.8224 18.5389L8.95264 21.9144H22.657Z" fill="white"/>
</g>
<defs>
<clipPath id="clip0">
<rect width="50" height="50" fill="white"/>
</clipPath>
</defs>
</svg>
